{
  "accessors": [
    {
      "bufferView": 0,
      "componentType": 5125,
      "count": 1464990,
      "type": "SCALAR"
    },
    {
      "bufferView": 1,
      "componentType": 5126,
      "count": 311106,
      "max": [
        12.648796081543,
        230.212448120117,
        600.0
      ],
      "min": [
        -175.33447265625,
        -30.1765594482422,
        0.0
      ],
      "type": "VEC3"
    },
    {
      "bufferView": 2,
      "componentType": 5126,
      "count": 311106,
      "type": "VEC3"
    },
    {
      "bufferView": 3,
      "componentType": 5126,
      "count": 311106,
      "type": "VEC2"
    }
  ],
  "asset": {
    "generator": "Adobe Substance 3D Painter 7.4.2",
    "version": "2.0"
  },
  "bufferViews": [
    {
      "buffer": 0,
      "byteLength": 5859960,
      "target": 34963
    },
    {
      "buffer": 0,
      "byteLength": 3733272,
      "byteOffset": 5859960,
      "target": 34962
    },
    {
      "buffer": 0,
      "byteLength": 3733272,
      "byteOffset": 9593232,
      "target": 34962
    },
    {
      "buffer": 0,
      "byteLength": 2488848,
      "byteOffset": 13326504,
      "target": 34962
    }
  ],
  "buffers": [
    {
      "byteLength": 15815352,
      "uri": "Untitled.bin"
    }
  ],
  "images": [
    {
      "uri": "stroitlesa_baseColor.png"
    },
    {
      "uri": "stroitlesa_occlusionRoughnessMetallic.png"
    },
    {
      "uri": "stroitlesa_normal.png"
    }
  ],
  "materials": [
    {
      "alphaMode": "OPAQUE",
      "name": "stroitlesa",
      "normalTexture": {
        "index": 2
      },
      "occlusionTexture": {
        "index": 1
      },
      "pbrMetallicRoughness": {
        "baseColorTexture": {
          "index": 0
        },
        "metallicRoughnessTexture": {
          "index": 1
        }
      }
    }
  ],
  "meshes": [
    {
      "name": "stroitlesa",
      "primitives": [
        {
          "attributes": {
            "NORMAL": 2,
            "POSITION": 1,
            "TEXCOORD_0": 3
          },
          "indices": 0,
          "material": 0,
          "mode": 4
        }
      ]
    }
  ],
  "nodes": [
    {
      "children": [
        1
      ],
      "name": "RootNode"
    },
    {
      "children": [
        2
      ],
      "name": "stroitlesa",
      "rotation": [
        1.0,
        0.0,
        0.0,
        -3.13916473260178e-07
      ],
      "scale": [
        1.02753353118896,
        1.02753353118896,
        1.0
      ],
      "translation": [
        49.9325561523438,
        236.55094909668,
        285.342987060547
      ]
    },
    {
      "mesh": 0,
      "name": "stroitlesa"
    }
  ],
  "samplers": [
    {
      "magFilter": 9729,
      "minFilter": 9985,
      "wrapS": 10497,
      "wrapT": 10497
    }
  ],
  "scene": 0,
  "scenes": [
    {
      "name": "Scene",
      "nodes": [
        0
      ]
    }
  ],
  "textures": [
    {
      "sampler": 0,
      "source": 0
    },
    {
      "sampler": 0,
      "source": 1
    },
    {
      "sampler": 0,
      "source": 2
    }
  ]
}