{
  "accessors": [
    {
      "bufferView": 0,
      "componentType": 5125,
      "count": 180,
      "type": "SCALAR"
    },
    {
      "bufferView": 1,
      "componentType": 5126,
      "count": 57,
      "max": [
        1.00000011920929,
        1.00000011920929,
        1.00000023841858
      ],
      "min": [
        -1.00000011920929,
        -1.00000011920929,
        -1.00000011920929
      ],
      "type": "VEC3"
    },
    {
      "bufferView": 2,
      "componentType": 5126,
      "count": 57,
      "type": "VEC3"
    },
    {
      "bufferView": 3,
      "componentType": 5126,
      "count": 57,
      "type": "VEC2"
    }
  ],
  "asset": {
    "generator": "Adobe Substance 3D Painter 7.4.2",
    "version": "2.0"
  },
  "bufferViews": [
    {
      "buffer": 0,
      "byteLength": 720,
      "target": 34963
    },
    {
      "buffer": 0,
      "byteLength": 684,
      "byteOffset": 720,
      "target": 34962
    },
    {
      "buffer": 0,
      "byteLength": 684,
      "byteOffset": 1404,
      "target": 34962
    },
    {
      "buffer": 0,
      "byteLength": 456,
      "byteOffset": 2088,
      "target": 34962
    }
  ],
  "buffers": [
    {
      "byteLength": 2544,
      "uri": "Untitled.bin"
    }
  ],
  "images": [
    {
      "uri": "obelisk_baseColor.png"
    },
    {
      "uri": "obelisk_occlusionRoughnessMetallic.png"
    },
    {
      "uri": "obelisk_normal.png"
    }
  ],
  "materials": [
    {
      "alphaMode": "OPAQUE",
      "name": "obelisk",
      "normalTexture": {
        "index": 2
      },
      "occlusionTexture": {
        "index": 1
      },
      "pbrMetallicRoughness": {
        "baseColorTexture": {
          "index": 0
        },
        "metallicRoughnessTexture": {
          "index": 1
        }
      }
    }
  ],
  "meshes": [
    {
      "name": "obelsik",
      "primitives": [
        {
          "attributes": {
            "NORMAL": 2,
            "POSITION": 1,
            "TEXCOORD_0": 3
          },
          "indices": 0,
          "material": 0,
          "mode": 4
        }
      ]
    }
  ],
  "nodes": [
    {
      "children": [
        1
      ],
      "name": "RootNode"
    },
    {
      "children": [
        2
      ],
      "name": "obelsik",
      "rotation": [
        -0.70710688829422,
        0.0,
        0.0,
        0.707106649875641
      ],
      "scale": [
        4143.9638671875,
        4178.31787109375,
        4939.18994140625
      ],
      "translation": [
        -4.64119357095755e-13,
        4966.7783203125,
        -4461.560546875
      ]
    },
    {
      "mesh": 0,
      "name": "obelsik"
    }
  ],
  "samplers": [
    {
      "magFilter": 9729,
      "minFilter": 9985,
      "wrapS": 10497,
      "wrapT": 10497
    }
  ],
  "scene": 0,
  "scenes": [
    {
      "name": "Scene",
      "nodes": [
        0
      ]
    }
  ],
  "textures": [
    {
      "sampler": 0,
      "source": 0
    },
    {
      "sampler": 0,
      "source": 1
    },
    {
      "sampler": 0,
      "source": 2
    }
  ]
}